<svg xmlns="http://www.w3.org/2000/svg" viewBox="0 0 600 520"><defs><pattern id="dots" width="24" height="24" patternUnits="userSpaceOnUse"><circle cx="4" cy="4" r="1" fill="#c9d0b9"/></pattern><filter id="s"><feDropShadow dx="0" dy="10" stdDeviation="9" flood-color="#486038" flood-opacity=".15"/></filter></defs><rect width="600" height="520" fill="#e7eddc"/><path d="M530 60 C420 55 400 160 473 165 C555 170 597 55 530 60Z" fill="#dce4cd"/><circle cx="300" cy="230" r="187" fill="#d9e2c8"/><rect width="600" height="520" fill="url(#dots)" opacity=".4"/><ellipse cx="336" cy="465" rx="142" ry="22" fill="#bcc8a8" opacity=".5"/><g filter="url(#s)"><path d="M381 290 C488 297 523 212 492 207 C469 206 497 258 402 252Z" fill="#c68b55"/><ellipse cx="321" cy="316" rx="105" ry="123" fill="#d69d63"/><path d="M265 290 Q315 266 363 290 L362 429 Q325 451 275 427Z" fill="#f2d5a6"/><path d="M236 353 Q215 460 259 465 Q282 468 280 423 L287 364Z" fill="#c58b53"/><path d="M371 353 Q396 460 352 465 Q329 468 331 423 L324 364Z" fill="#c58b53"/><ellipse cx="253" cy="457" rx="34" ry="16" fill="#e9c390"/><ellipse cx="359" cy="457" rx="34" ry="16" fill="#e9c390"/><path d="M231 95 Q177 72 171 158 Q168 206 212 208 L253 153Z" fill="#a56f3e"/><path d="M367 95 Q421 72 427 158 Q430 206 386 208 L345 153Z" fill="#a56f3e"/><path d="M218 149 Q219 66 300 63 Q380 66 382 149 L369 215 Q300 276 231 215Z" fill="#dda871"/><path d="M291 69 Q272 155 266 180 Q299 211 334 179 Q322 155 307 69Z" fill="#f5dfb6"/><ellipse cx="264" cy="144" rx="10" ry="13" fill="#334234"/><ellipse cx="337" cy="144" rx="10" ry="13" fill="#334234"/><circle cx="267" cy="140" r="3" fill="#fff"/><circle cx="340" cy="140" r="3" fill="#fff"/><ellipse cx="300" cy="199" rx="50" ry="34" fill="#f3d7ad"/><path d="M283 179 Q300 168 317 179 Q316 198 300 201 Q284 196 283 179Z" fill="#334234"/><path d="M270 207 Q300 249 330 207" fill="#534139"/><path d="M289 226 Q300 218 311 226 L310 247 Q300 260 290 247Z" fill="#d8877b"/><path d="M230 238 Q300 269 368 238 L370 255 Q300 285 230 255Z" fill="#526c50"/><circle cx="300" cy="272" r="16" fill="#dbaa59"/><path d="M294 268 L306 268 L306 276 L294 276Z" fill="#f5dfb1"/></g><g transform="translate(470 362) rotate(12)"><ellipse cx="0" cy="29" rx="57" ry="24" fill="#b7785c"/><path d="M-53 0 L-42 35 Q0 61 42 35 L53 0Z" fill="#d99d7e"/><ellipse cx="0" cy="0" rx="53" ry="23" fill="#eac0a1"/><ellipse cx="0" cy="0" rx="38" ry="15" fill="#8d674e"/></g><g transform="translate(105 225) rotate(-20)"><path d="M0 0 C-40-34 -50 11 -24 24 L20 24 C50 37 56-11 24-4Z" fill="#f6e8cb"/></g><g fill="#637953"><path d="M487 102 L494 89 L501 102 L514 109 L501 116 L494 129 L487 116 L474 109Z"/><circle cx="127" cy="145" r="5"/><circle cx="452" cy="252" r="4"/></g></svg>
